<svg width="30" height="30" viewBox="0 0 30 30" fill="none" xmlns="http://www.w3.org/2000/svg">
<g clip-path="url(#clip0_1_182)">
<path d="M15 0C23.2845 0 30 6.7155 30 15C30 23.2845 23.2845 30 15 30C6.7155 30 0 23.2845 0 15C0 6.7155 6.7155 0 15 0ZM21.663 9C21.0915 9.0105 20.214 9.3105 15.9945 11.043C13.0327 12.2795 10.0792 13.5355 7.134 14.811C6.414 15.0945 6.039 15.3705 6.0045 15.6405C5.9385 16.1595 6.6945 16.32 7.6455 16.626C8.421 16.875 9.465 17.166 10.008 17.178C10.5 17.1885 11.049 16.9875 11.655 16.578C15.795 13.818 17.9295 12.4245 18.0645 12.3945C18.159 12.3735 18.2895 12.3465 18.3795 12.4245C18.468 12.5025 18.459 12.6495 18.4485 12.69C18.3735 13.0065 14.487 16.497 14.2635 16.7265L14.1555 16.8345C13.3305 17.649 12.498 18.1815 13.935 19.116C15.234 19.9605 15.99 20.499 17.325 21.366C18.18 21.918 18.8505 22.5735 19.7325 22.494C20.139 22.4565 20.5575 22.08 20.772 20.955C21.2745 18.3 22.2645 12.543 22.4925 10.17C22.5063 9.97317 22.4977 9.77541 22.467 9.5805C22.4485 9.42314 22.3714 9.27853 22.251 9.1755C22.0695 9.0285 21.7875 8.9985 21.663 9Z" fill="#222222"/>
</g>
<defs>
<clipPath id="clip0_1_182">
<rect width="30" height="30" fill="white"/>
</clipPath>
</defs>
</svg>
