<svg width="195" height="41" viewBox="0 0 195 41" fill="none" xmlns="http://www.w3.org/2000/svg">
<g clip-path="url(#clip0_1_68)">
<path d="M36.8534 25.3039H15.0073L12.2053 41H0L4.36922 15.6961H38.5156L36.8534 25.3039ZM39.133 12.2715H4.98661L7.12372 0H41.2701L39.133 12.2715ZM74.4192 25.3039H52.5731L51.9557 28.7285H73.8018L71.6171 41H37.5658L41.935 15.6961H76.0814L74.4192 25.3039ZM76.6987 12.2715H42.5999L44.737 0H78.8833L76.6987 12.2715ZM111.985 25.3039H90.1388L89.5214 28.7285H111.368L109.183 41H75.1315L79.5007 15.6961H113.647L111.985 25.3039ZM114.264 12.2715H80.1656L82.3027 0H116.449L114.264 12.2715ZM146.796 41H112.745L117.066 15.7436H129.367L127.135 28.7285H148.981L146.796 41ZM129.984 12.2715H117.731L119.868 0H132.169L129.984 12.2715ZM187.781 41H150.311L168.547 15.7436H183.65L174.294 28.7285H190.013L187.781 41ZM186.072 12.2715H155.297L157.434 0H195L186.072 12.2715Z" fill="#222222"/>
</g>
<defs>
<clipPath id="clip0_1_68">
<rect width="195" height="41" fill="white"/>
</clipPath>
</defs>
</svg>
