<svg width="221" height="30" viewBox="0 0 221 30" fill="none" xmlns="http://www.w3.org/2000/svg">
<g clip-path="url(#clip0_1_75)">
<path d="M145.889 0.165392C137.34 1.19481 131.873 7.98892 132.629 16.6066C133.152 22.7242 136.846 27.136 143.01 29.1066C147.169 30.43 151.996 30.0477 156.328 28.0477C158.829 26.8713 161.766 23.9301 162.871 21.4595C164.529 17.8124 164.5 12.0772 162.813 8.45951C161.766 6.1948 158.48 2.87128 156.241 1.81245C152.868 0.224216 149.611 -0.305195 145.889 0.165392ZM150.658 10.1066C152.839 11.1066 153.915 13.3713 153.537 16.1654C153.159 19.0772 150.832 20.9301 147.808 20.636C145.017 20.3713 143.301 18.6066 143.039 15.6654C142.807 13.4301 143.999 11.136 145.831 10.1948C147.401 9.40068 149.059 9.37127 150.658 10.1066Z" fill="#222222"/>
<path d="M4.36184 0.782934C4.30368 0.988816 3.51855 5.66528 2.61711 11.1653C1.74474 16.6653 0.814211 22.3712 0.5525 23.8418C0.319868 25.3123 0.0872368 27.1653 0.0581579 27.9594L0 29.4006L4.53632 29.4888C7.93855 29.5477 9.15987 29.4594 9.36342 29.1947C9.65421 28.8418 9.91592 26.6947 10.6429 19.5476C11.1954 13.9888 11.1663 14.0476 12.0096 16.7535C16.0516 30.0771 15.7317 29.1653 16.5168 29.3712C17.7091 29.6653 21.2858 29.5183 21.7511 29.1653C22.1 28.8712 26.5782 15.5182 26.6072 14.6359C26.6072 14.5182 26.7526 14.6065 26.898 14.8712C27.0434 15.1065 27.3051 16.9006 27.4505 18.8418C27.625 20.7535 27.8867 23.7829 28.0612 25.5476C28.2066 27.2829 28.4974 28.9006 28.6718 29.1359C28.9336 29.4594 29.9804 29.5477 33.2663 29.5477C35.5926 29.5477 37.6863 29.43 37.9189 29.2829C38.2388 29.077 38.2388 28.5476 37.8317 25.9888C37.57 24.3123 36.7558 19.2829 36.0288 14.8418C35.3309 10.4006 34.604 6.10646 34.4586 5.34175C34.2841 4.54764 34.1678 3.63587 34.1678 3.28293C34.1678 2.92999 34.0224 2.13588 33.8479 1.51823L33.5571 0.429993H28.5264C24.8334 0.429993 23.4086 0.518228 23.1759 0.782934C23.0305 0.988816 22.4199 2.87117 21.8383 4.98881C21.2567 7.07705 20.5297 9.66528 20.2389 10.7241C19.9191 11.7829 19.5992 13.1359 19.4829 13.7535C19.3957 14.4006 19.163 14.8418 18.9595 14.7535C18.785 14.6947 18.2907 13.2829 17.8545 11.577C15.9643 3.98881 15.1792 1.13588 14.8884 0.782934C14.6849 0.518228 13.26 0.429993 9.5379 0.429993C5.75763 0.429993 4.44908 0.518228 4.36184 0.782934Z" fill="#222222"/>
<path d="M49.347 0.783117C49.0562 1.16547 48.2129 3.45959 45.7993 10.5772C45.0142 12.8419 43.6475 16.8125 42.7461 19.4008C40.0999 26.9596 39.6055 28.6066 39.8091 29.1066C39.9545 29.548 40.5651 29.5774 45.0724 29.4891C50.6846 29.4008 50.5392 29.4303 50.8591 27.4596C50.9754 26.7831 51.2662 26.2243 51.5861 26.0184C52.1967 25.6949 57.9253 25.6066 58.6813 25.9008C58.943 25.989 59.292 26.7243 59.4955 27.5478C59.7863 28.6361 60.0771 29.1066 60.5714 29.2831C61.4729 29.6362 69.9639 29.6068 70.5164 29.2537C70.8654 29.0478 70.8072 28.6949 70.1675 26.8419C69.7313 25.6655 68.5391 22.2537 67.4632 19.2537C66.3872 16.2537 65.1659 12.7537 64.7007 11.4596C62.4034 5.07723 61.2112 1.60665 61.2112 1.34194C61.2112 0.636058 59.8736 0.430176 54.872 0.430176C51.0336 0.430176 49.5796 0.518411 49.347 0.783117ZM55.5408 11.6655C55.6571 12.1949 56.0061 13.7243 56.3259 15.0478C57.1401 18.5184 57.0529 18.7831 55.1628 18.9008C53.9705 18.9596 53.5925 18.9008 53.4762 18.5184C53.3308 18.1361 54.2032 12.7831 54.6975 11.0772C54.9011 10.4008 55.3372 10.7243 55.5408 11.6655Z" fill="#222222"/>
<path d="M72.5811 0.841757C72.1449 1.37117 72.1449 28.1947 72.5811 28.9888C72.8428 29.4888 73.2789 29.5477 77.2918 29.5477C80.3742 29.5477 81.8572 29.43 82.0899 29.1947C82.497 28.7829 82.5551 20.4594 82.1771 17.1065C82.0608 16.0182 82.0317 15.0476 82.0899 14.9888C82.3225 14.7829 83.0495 15.93 86.3645 21.4594C88.1092 24.3712 89.9412 27.3418 90.4355 28.0771L91.3661 29.4006H96.135H100.904L101.049 15.43C101.137 7.75352 101.078 1.22411 100.962 0.929993C100.759 0.459404 100.293 0.429993 96.0187 0.488816L91.3079 0.577052V6.16528C91.3079 9.22411 91.4242 12.6359 91.5696 13.7241C91.715 14.93 91.715 15.7241 91.5696 15.7241C91.4242 15.7241 90.5228 14.3712 89.5632 12.6947C86.1318 6.66528 82.6424 0.871169 82.3225 0.665287C82.148 0.54764 79.9671 0.429993 77.4663 0.429993C73.9478 0.429993 72.8428 0.518228 72.5811 0.841757Z" fill="#222222"/>
<path d="M105.876 0.900662C105.789 1.16537 105.702 7.57712 105.702 15.1359C105.702 28.4889 105.731 28.9595 106.254 29.2536C106.981 29.6359 115.007 29.6359 115.589 29.2536C115.938 29.0183 115.996 28.1359 115.909 23.8124C115.851 19.6654 115.909 18.6654 116.229 18.6654C116.548 18.6948 118.439 21.783 121.492 27.3124C121.957 28.1359 122.539 28.9889 122.8 29.1948C123.556 29.7829 133.879 29.6653 134.112 29.0771C134.199 28.8124 132.455 25.9301 129.721 21.8124C127.22 18.0477 125.185 14.7536 125.185 14.4889C125.185 14.0771 129.867 6.45947 132.484 2.57713C133.967 0.400662 134.025 0.430074 127.976 0.430074C124.051 0.430074 122.568 0.518309 122.364 0.783015C122.19 0.988898 121.666 1.90066 121.201 2.78302C117.334 9.95947 116.374 11.6065 116.112 11.6065C115.909 11.6065 115.851 9.93006 115.938 6.31241C116.025 2.90066 115.967 0.930074 115.763 0.724192C115.589 0.547721 113.611 0.430074 110.762 0.430074C106.749 0.430074 106.022 0.488898 105.876 0.900662Z" fill="#222222"/>
<path d="M164.063 0.841797C163.976 1.04768 164.005 1.3418 164.122 1.48886C164.383 1.78297 164.907 3.1065 169.239 14.6653C173.863 26.93 174.619 28.783 175.142 29.1653C175.608 29.5476 181.976 29.7241 183.197 29.3712C183.634 29.2536 184.099 28.4594 184.855 26.5183C185.407 25.0183 186.512 22.2241 187.268 20.283C188.024 18.3418 189.013 15.6947 189.449 14.4006C190.322 11.9006 192.357 6.51827 193.637 3.40062C194.916 0.253561 195.178 0.430032 189.333 0.430032C185.64 0.430032 184.215 0.518267 183.982 0.782973C183.837 0.988856 183.488 1.95944 183.226 2.93003C182.965 3.90062 182.412 5.81238 182.005 7.19474C181.569 8.57709 180.813 11.283 180.319 13.1947L179.359 16.6947L178.428 13.3418C176.451 6.37121 174.823 1.16533 174.561 0.782973C174.096 0.25356 164.267 0.282972 164.063 0.841797Z" fill="#222222"/>
<path d="M199.685 0.812285C199.307 1.28287 198.202 4.34169 193.433 18.224C190.874 25.724 189.886 28.9299 190.089 29.1652C190.467 29.6359 198.9 29.6947 200.005 29.2829C200.499 29.077 200.79 28.6946 200.936 28.0182C201.401 25.8123 201.575 25.724 205.385 25.724C207.246 25.724 208.932 25.8417 209.107 25.9593C209.31 26.077 209.63 26.7535 209.834 27.4888C210.037 28.224 210.386 28.9887 210.648 29.1652C210.939 29.43 212.451 29.5476 215.795 29.5476C219.197 29.5476 220.564 29.4594 220.796 29.1652C221 28.9299 220.447 27.0476 218.935 22.7829C216.086 14.8123 214.69 10.8711 212.945 5.72404C212.16 3.3711 211.375 1.22405 211.229 0.929932C210.968 0.488755 210.386 0.429932 205.472 0.429932C201.343 0.429932 199.918 0.518167 199.685 0.812285ZM205.85 11.6652C205.937 12.0476 206.315 13.6652 206.693 15.2829C207.536 18.7829 207.449 19.0182 205.326 18.9005C204.047 18.8123 203.843 18.724 203.756 18.1358C203.669 17.577 204.57 12.7829 205.007 11.3711C205.21 10.7829 205.704 10.9593 205.85 11.6652Z" fill="#222222"/>
</g>
<defs>
<clipPath id="clip0_1_75">
<rect width="221" height="30" fill="white"/>
</clipPath>
</defs>
</svg>
