<svg width="212" height="26" viewBox="0 0 212 26" fill="none" xmlns="http://www.w3.org/2000/svg">
<g clip-path="url(#clip0_1_85)">
<path d="M9.31208 2.41357L4.40861 2.54523C2.50009 2.61106 1.71025 2.77483 1.217 3.49415C0.888169 3.98545 0.723754 4.38047 0.657665 4.64218C0.591576 4.90389 0.49325 5.03554 0.296594 5.03554C0.0660889 5.03554 0 4.87177 0 4.51211C0 3.98546 0.623815 1.00384 0.691515 0.742117C0.789843 0.316629 0.888169 0.119141 1.08483 0.119141C1.34918 0.119141 1.67801 0.446687 2.50009 0.512518C3.45436 0.610458 4.70519 0.676289 5.79002 0.676289H18.8208C19.875 0.676289 20.5972 0.578345 21.092 0.512518C21.5853 0.412969 21.848 0.348743 21.9802 0.348743C22.2091 0.348743 22.2429 0.544628 22.2429 1.03755C22.2429 1.72476 22.1446 3.98546 22.1446 4.83806C22.1107 5.1656 22.0447 5.36307 21.848 5.36307C21.5853 5.36307 21.5192 5.19931 21.4869 4.708L21.4531 4.34673C21.3886 3.49415 20.4988 2.57734 17.5716 2.51151L13.4241 2.41357V15.8526C13.4241 18.868 13.4241 21.4562 13.5885 22.8659C13.6885 23.7827 13.8851 24.5037 14.8716 24.6353C15.3326 24.7011 16.058 24.7654 16.5512 24.7654C16.9123 24.7654 17.0767 24.8649 17.0767 25.0271C17.0767 25.2583 16.814 25.3579 16.4513 25.3579C14.28 25.3579 12.2071 25.2583 11.2851 25.2583C10.5291 25.2583 8.45616 25.3579 7.14084 25.3579C6.71206 25.3579 6.48153 25.2583 6.48153 25.0271C6.48153 24.8649 6.61373 24.7654 7.00864 24.7654C7.5019 24.7654 7.89681 24.7011 8.19342 24.6353C8.85106 24.5037 9.04772 23.7827 9.14605 22.8322C9.31209 21.4562 9.31208 18.868 9.31208 15.8526V2.41357Z" fill="#222222"/>
<path d="M35.4546 16.8962C35.5899 16.8962 35.6189 16.816 35.5899 16.7325L33.1334 10.0146C33.1061 9.90698 33.0787 9.77052 32.9962 9.77052C32.9157 9.77052 32.861 9.90698 32.8336 10.0146L30.3206 16.7068C30.2932 16.816 30.3206 16.8962 30.4302 16.8962H35.4546ZM29.8838 18.2578C29.7467 18.2578 29.6919 18.3124 29.6387 18.4746L28.1638 22.3634C27.8914 23.0441 27.7544 23.696 27.7544 24.0236C27.7544 24.5133 27.9994 24.8665 28.8457 24.8665H29.2551C29.5839 24.8665 29.6662 24.9211 29.6662 25.0849C29.6662 25.3016 29.5017 25.3579 29.2019 25.3579C28.3266 25.3579 27.1532 25.276 26.3069 25.276C26.0071 25.276 24.5048 25.3579 23.0847 25.3579C22.7284 25.3579 22.5656 25.3016 22.5656 25.0849C22.5656 24.9211 22.6752 24.8665 22.8945 24.8665C23.1379 24.8665 23.5215 24.8392 23.7391 24.8135C24.9964 24.6498 25.5154 23.7249 26.0619 22.3634L32.9157 5.28282C33.2429 4.49445 33.4059 4.19421 33.68 4.19421C33.9248 4.19421 34.0893 4.43985 34.3618 5.06445C35.0179 6.56088 39.3862 17.6589 41.1334 21.7934C42.1714 24.2403 42.9644 24.6225 43.5383 24.7574C43.9477 24.8392 44.3557 24.8665 44.6846 24.8665C44.902 24.8665 45.0392 24.8938 45.0392 25.0849C45.0392 25.3016 44.7925 25.3579 43.7834 25.3579C42.8001 25.3579 40.8062 25.3579 38.6219 25.3016C38.1304 25.276 37.8032 25.276 37.8032 25.0849C37.8032 24.9211 37.9111 24.8665 38.1851 24.8392C38.3771 24.7847 38.5671 24.5406 38.4318 24.2147L36.2459 18.4489C36.1928 18.3124 36.1107 18.2578 35.9735 18.2578H29.8838Z" fill="#222222"/>
<path d="M53.536 5.78001L49.4673 5.88918C47.883 5.94216 47.227 6.07866 46.8192 6.67755C46.5467 7.08537 46.4095 7.41132 46.3532 7.62969C46.3 7.84644 46.2163 7.95561 46.0533 7.95561C45.8633 7.95561 45.8082 7.82076 45.8082 7.52049C45.8082 7.08537 46.3258 4.6095 46.3822 4.39275C46.4627 4.0395 46.5467 3.87573 46.7094 3.87573C46.9271 3.87573 47.2012 4.14708 47.883 4.20168C48.6744 4.28358 49.7124 4.33815 50.6136 4.33815H61.4278C62.3016 4.33815 62.9029 4.25628 63.3106 4.20168C63.72 4.11978 63.9409 4.06522 64.0488 4.06522C64.2408 4.06522 64.2666 4.22898 64.2666 4.6368C64.2666 5.20839 64.186 7.08537 64.186 7.79184C64.1586 8.06481 64.1036 8.22696 63.9409 8.22696C63.72 8.22696 63.6668 8.09211 63.6395 7.68426L63.6121 7.38561C63.5573 6.67755 62.8208 5.91486 60.3898 5.86029L56.95 5.78001V16.9326C56.95 19.4326 56.95 21.5825 57.0853 22.753C57.1677 23.514 57.332 24.1113 58.151 24.2221C58.533 24.2751 59.1343 24.3297 59.5437 24.3297C59.8435 24.3297 59.9804 24.4116 59.9804 24.5481C59.9804 24.7375 59.7611 24.8194 59.4612 24.8194C57.6592 24.8194 55.9393 24.7375 55.1754 24.7375C54.5451 24.7375 52.8268 24.8194 51.7337 24.8194C51.3791 24.8194 51.1875 24.7375 51.1875 24.5481C51.1875 24.4116 51.2954 24.3297 51.6242 24.3297C52.0336 24.3297 52.3608 24.2751 52.6075 24.2221C53.1541 24.1113 53.3167 23.514 53.3988 22.7257C53.536 21.5825 53.536 19.4326 53.536 16.9326V5.78001Z" fill="#222222"/>
<path d="M79.1661 16.8962C79.3033 16.8962 79.3307 16.816 79.3033 16.7325L76.8449 10.0146C76.8175 9.90698 76.7902 9.77052 76.7096 9.77052C76.6259 9.77052 76.5727 9.90698 76.5454 10.0146L74.0322 16.7068C74.0049 16.816 74.0322 16.8962 74.1418 16.8962H79.1661ZM73.5955 18.2578C73.4583 18.2578 73.4036 18.3124 73.3504 18.4746L71.8756 22.3634C71.6032 23.0441 71.466 23.696 71.466 24.0236C71.466 24.5133 71.7111 24.8665 72.5575 24.8665H72.9668C73.2957 24.8665 73.3778 24.9211 73.3778 25.0849C73.3778 25.3016 73.2135 25.3579 72.9137 25.3579C72.0399 25.3579 70.8647 25.276 70.0186 25.276C69.7187 25.276 68.2166 25.3579 66.7962 25.3579C66.4416 25.3579 66.2774 25.3016 66.2774 25.0849C66.2774 24.9211 66.3869 24.8665 66.6062 24.8665C66.851 24.8665 67.2333 24.8392 67.4507 24.8135C68.7081 24.6498 69.2256 23.7249 69.7719 22.3634L76.6259 5.28282C76.9531 4.49445 77.1174 4.19421 77.3915 4.19421C77.6366 4.19421 77.8008 4.43985 78.0733 5.06445C78.7294 6.56088 83.0976 17.6589 84.8449 21.7934C85.8832 24.2403 86.6762 24.6225 87.2485 24.7574C87.6595 24.8392 88.0688 24.8665 88.396 24.8665C88.6154 24.8665 88.7507 24.8938 88.7507 25.0849C88.7507 25.3016 88.5055 25.3579 87.4949 25.3579C86.5116 25.3579 84.5196 25.3579 82.3337 25.3016C81.8419 25.276 81.5146 25.276 81.5146 25.0849C81.5146 24.9211 81.6229 24.8665 81.8969 24.8392C82.0886 24.7847 82.2789 24.5406 82.1417 24.2147L79.9577 18.4489C79.9046 18.3124 79.8221 18.2578 79.6853 18.2578H73.5955Z" fill="#222222"/>
<path d="M104.105 12.97C103.307 12.681 101.717 12.5413 100.434 12.4755C99.8412 12.4434 99.5124 12.4434 99.019 12.4434C98.8869 12.4434 98.8223 12.5076 98.8223 12.6714V20.4394C98.8223 22.6038 98.9206 23.1609 99.9733 23.5864C100.861 23.9476 101.619 23.9798 102.375 23.9798C103.856 23.9798 108.181 23.1753 108.852 19.8324C109.076 18.7149 109.29 17.8206 108.65 16.4799C108.286 15.7157 107.57 14.7154 106.484 14.041C105.812 13.6235 104.917 13.2655 104.105 12.97ZM98.8223 10.6403C98.8223 10.902 98.9206 10.9678 99.0511 11C99.3478 11.0658 99.8412 11.0995 100.599 11.0995C101.685 11.0995 102.409 10.9678 102.967 10.4765C103.822 9.78772 104.317 8.60757 104.317 7.00195C104.317 4.80707 103.033 1.92178 100.204 1.92178C99.7428 1.92178 99.4462 1.92178 99.1173 1.98761C98.8869 2.05344 98.8223 2.1835 98.8223 2.54477V10.6403ZM94.8732 10.0831C94.8732 5.1009 94.8732 4.1825 94.807 3.13402C94.7411 2.01972 94.4782 1.4963 93.3917 1.26669C93.1291 1.20086 92.5698 1.16875 92.1086 1.16875C91.746 1.16875 91.5493 1.10131 91.5493 0.873314C91.5493 0.643712 91.7798 0.577881 92.2732 0.577881C94.0172 0.577881 96.0901 0.675825 96.7494 0.675825C98.3613 0.675825 99.6445 0.577881 100.763 0.577881C106.719 0.577881 107.772 3.75699 107.772 5.4943C107.772 8.18209 106.224 9.78772 104.416 11.2312C106.263 11.859 109.585 12.331 111.221 14.1309C111.968 14.953 112.73 15.9019 112.802 17.8656C112.872 19.7345 112.04 21.8009 109.458 23.5013C107.541 24.7633 104.442 25.4537 101.619 25.4537C101.224 25.4537 100.27 25.3879 99.3157 25.3574C98.3292 25.2916 97.3411 25.2578 96.8477 25.2578C96.4852 25.2578 95.7613 25.2578 94.9716 25.2916C94.2156 25.2916 93.358 25.3574 92.7019 25.3574C92.2732 25.3574 92.0443 25.2578 92.0443 25.0282C92.0443 24.8645 92.1748 24.7665 92.5698 24.7665C93.0629 24.7665 93.458 24.7023 93.7546 24.6364C94.4123 24.5048 94.5765 23.7823 94.7086 22.8333C94.8732 21.4557 94.8732 18.8675 94.8732 15.8521V10.0831Z" fill="#222222"/>
<path d="M122.557 14.1807C122.555 14.4986 122.613 14.6158 122.816 14.7025C123.425 14.908 124.298 14.9995 125.024 15.0027C126.188 15.0075 126.565 14.8919 127.091 14.5178C127.965 13.8836 128.816 12.5542 128.825 10.1794C128.84 6.06748 126.113 4.86967 124.398 4.86165C123.669 4.85845 123.147 4.88575 122.857 4.97244C122.652 5.02862 122.592 5.14423 122.592 5.37706L122.557 14.1807ZM119.134 11.8782C119.154 7.47719 119.157 6.66475 119.101 5.73833C119.048 4.75245 118.817 4.28845 117.858 4.08292C117.624 4.02353 117.131 3.993 116.725 3.99141C116.406 3.9898 116.23 3.93041 116.231 3.72808C116.231 3.52579 116.434 3.46799 116.871 3.46957C118.414 3.47601 120.243 3.57072 120.854 3.57396C121.844 3.57716 124.054 3.49849 124.954 3.50331C126.786 3.50972 128.733 3.69115 130.3 4.77015C131.113 5.32246 132.268 6.80446 132.262 8.74564C132.252 10.8891 131.343 12.8544 128.397 15.2179C130.971 18.4725 132.968 21.0575 134.677 22.8606C136.297 24.5465 137.489 24.7553 137.925 24.8436C138.242 24.903 138.507 24.9319 138.737 24.9335C138.971 24.9335 139.087 25.0218 139.087 25.1663C139.085 25.3975 138.88 25.4553 138.532 25.4537L135.769 25.4441C134.143 25.4361 133.415 25.2883 132.662 24.8789C131.414 24.2077 130.315 22.843 128.695 20.6063C127.539 19.0088 126.209 17.0322 125.832 16.5987C125.687 16.4237 125.513 16.3948 125.31 16.3932L122.781 16.3257C122.636 16.3242 122.547 16.382 122.547 16.5554L122.545 16.96C122.534 19.6542 122.524 21.9422 122.665 23.1609C122.748 24.0006 122.922 24.638 123.795 24.7585C124.228 24.8163 124.868 24.8773 125.216 24.8789C125.45 24.8805 125.566 24.9672 125.564 25.1133C125.564 25.3156 125.36 25.4007 124.983 25.3991C123.296 25.3927 121.145 25.2964 120.709 25.2947C120.157 25.2931 118.324 25.3734 117.16 25.3686C116.783 25.367 116.58 25.2787 116.581 25.0764C116.581 24.9303 116.697 24.8452 117.047 24.8468C117.484 24.8484 117.832 24.7906 118.093 24.7344C118.677 24.6204 118.825 23.9846 118.943 23.1448C119.094 21.9294 119.102 19.6398 119.113 16.976L119.134 11.8782Z" fill="#222222"/>
<path d="M159.274 15.0116C159.274 8.52491 155.523 4.4996 150.755 4.4996C147.412 4.4996 143.601 6.35248 143.601 13.5649C143.601 19.5892 146.946 24.3675 152.528 24.3675C154.564 24.3675 159.274 23.3817 159.274 15.0116ZM139.589 14.4609C139.589 9.50914 142.874 3.10754 151.596 3.10754C158.837 3.10754 163.344 7.30783 163.344 13.9406C163.344 20.5735 158.693 25.8158 151.308 25.8158C142.961 25.8158 139.589 19.5892 139.589 14.4609Z" fill="#222222"/>
<path d="M170.234 21.5438C170.291 23.8013 170.671 24.5559 171.251 24.7582C171.746 24.9316 172.298 24.9605 172.762 24.9605C173.084 24.9605 173.257 25.0183 173.257 25.1918C173.257 25.4245 172.995 25.4824 172.589 25.4824C170.699 25.4824 169.535 25.394 168.983 25.394C168.722 25.394 167.356 25.4824 165.842 25.4824C165.465 25.4824 165.204 25.4551 165.204 25.1918C165.204 25.0183 165.378 24.9605 165.668 24.9605C166.047 24.9605 166.571 24.9316 166.977 24.816C167.733 24.5848 167.85 23.7435 167.878 21.2243L168.139 4.07788C168.139 3.49986 168.227 3.09363 168.519 3.09363C168.839 3.09363 169.1 3.47094 169.595 3.99116C169.943 4.36848 174.363 9.089 178.607 13.2877C180.586 15.2578 184.51 19.4292 185.004 19.8916H185.15L184.859 6.88931C184.83 5.11991 184.569 4.57081 183.871 4.28179C183.433 4.10677 182.736 4.10677 182.329 4.10677C181.98 4.10677 181.864 4.02008 181.864 3.84667C181.864 3.61385 182.183 3.58496 182.622 3.58496C184.132 3.58496 185.528 3.67327 186.139 3.67327C186.458 3.67327 187.563 3.58496 188.987 3.58496C189.366 3.58496 189.658 3.61385 189.658 3.84667C189.658 4.02008 189.482 4.10677 189.134 4.10677C188.842 4.10677 188.609 4.10677 188.26 4.19349C187.448 4.42628 187.214 5.03322 187.185 6.65648L186.866 24.9316C186.866 25.5691 186.748 25.8308 186.487 25.8308C186.168 25.8308 185.818 25.5113 185.499 25.1918C183.666 23.4545 179.945 19.6604 176.921 16.6772C173.753 13.5494 170.524 9.92874 170.001 9.37801H169.914L170.234 21.5438Z" fill="#222222"/>
<path d="M195.277 22.6587C192.428 20.1668 191.673 16.9234 191.673 14.1152C191.673 12.1435 192.284 8.72838 195.074 6.17863C197.168 4.26636 199.931 3.1087 204.262 3.1087C206.064 3.1087 207.141 3.2243 208.479 3.39771C209.583 3.54223 210.515 3.80233 211.385 3.89063C211.706 3.91955 211.824 4.06404 211.824 4.23745C211.824 4.46866 211.735 4.81709 211.679 5.83023C211.619 6.78719 211.648 8.37994 211.59 8.95797C211.561 9.39309 211.503 9.6243 211.24 9.6243C211.008 9.6243 210.952 9.39309 210.952 8.98688C210.921 8.08935 210.544 7.0762 209.817 6.32315C208.858 5.30839 206.59 4.52808 203.914 4.52808C201.383 4.52808 199.726 5.1639 198.447 6.32315C196.323 8.26434 195.774 11.0164 195.774 13.8246C195.774 20.7175 201.035 24.1343 204.931 24.1343C207.52 24.1343 209.09 23.8452 210.252 22.5126C210.747 21.9619 211.124 21.1237 211.24 20.6019C211.329 20.1395 211.385 20.0223 211.619 20.0223C211.824 20.0223 211.882 20.2246 211.882 20.4574C211.882 20.8058 211.532 23.325 211.24 24.3077C211.095 24.8006 210.979 24.9467 210.486 25.149C209.322 25.6131 207.112 25.8154 205.252 25.8154C201.269 25.8154 197.924 24.9467 195.277 22.6587Z" fill="#222222"/>
</g>
<defs>
<clipPath id="clip0_1_85">
<rect width="212" height="26" fill="white"/>
</clipPath>
</defs>
</svg>
