<svg width="30" height="30" viewBox="0 0 30 30" fill="none" xmlns="http://www.w3.org/2000/svg">
<path d="M15 0C6.71562 0 0 6.71562 0 15C0 23.2844 6.71562 30 15 30C23.2844 30 30 23.2844 30 15C30 6.71562 23.2844 0 15 0ZM20.7687 16.9234C20.7687 16.9234 22.0953 18.2328 22.4219 18.8406C22.4312 18.8531 22.4359 18.8656 22.4391 18.8719C22.5719 19.0953 22.6031 19.2687 22.5375 19.3984C22.4281 19.6141 22.0531 19.7203 21.925 19.7297H19.5812C19.4187 19.7297 19.0781 19.6875 18.6656 19.4031C18.3484 19.1812 18.0359 18.8172 17.7312 18.4625C17.2766 17.9344 16.8828 17.4781 16.4859 17.4781C16.4355 17.478 16.3854 17.4859 16.3375 17.5016C16.0375 17.5984 15.6531 18.0266 15.6531 19.1672C15.6531 19.5234 15.3719 19.7281 15.1734 19.7281H14.1C13.7344 19.7281 11.8297 19.6 10.1422 17.8203C8.07656 15.6406 6.21719 11.2687 6.20156 11.2281C6.08437 10.9453 6.32656 10.7937 6.59062 10.7937H8.95781C9.27344 10.7937 9.37656 10.9859 9.44844 11.1562C9.53281 11.3547 9.84219 12.1437 10.35 13.0312C11.1734 14.4781 11.6781 15.0656 12.0828 15.0656C12.1587 15.0647 12.2332 15.0454 12.3 15.0094C12.8281 14.7156 12.7297 12.8328 12.7062 12.4422C12.7062 12.3687 12.7047 11.6 12.4344 11.2312C12.2406 10.9641 11.9109 10.8625 11.7109 10.825C11.7919 10.7133 11.8985 10.6227 12.0219 10.5609C12.3844 10.3797 13.0375 10.3531 13.6859 10.3531H14.0469C14.75 10.3625 14.9313 10.4078 15.1859 10.4719C15.7016 10.5953 15.7125 10.9281 15.6672 12.0672C15.6531 12.3906 15.6391 12.7562 15.6391 13.1875C15.6391 13.2812 15.6344 13.3812 15.6344 13.4875C15.6187 14.0672 15.6 14.725 16.0094 14.9953C16.0628 15.0288 16.1245 15.0467 16.1875 15.0469C16.3297 15.0469 16.7578 15.0469 17.9172 13.0578C18.2747 12.4176 18.5855 11.7523 18.8469 11.0672C18.8703 11.0266 18.9391 10.9016 19.0203 10.8531C19.0803 10.8226 19.1468 10.807 19.2141 10.8078H21.9969C22.3 10.8078 22.5078 10.8531 22.5469 10.9703C22.6156 11.1562 22.5344 11.7234 21.2641 13.4437L20.6969 14.1922C19.5453 15.7016 19.5453 15.7781 20.7687 16.9234Z" fill="#222222"/>
</svg>
